<svg width="214" height="94" viewBox="0 0 214 94" xmlns="http://www.w3.org/2000/svg">
  <g fill-rule="nonzero" fill="none">
    <path d="M33.5 94c8.984 0 16.719-3.203 23.203-9.61 6.406-6.328 9.61-14.062 9.61-23.203V6.344c0-1.758-.596-3.213-1.788-4.365C63.334.826 61.88.25 60.16.25c-1.758 0-3.213.576-4.365 1.729-1.152 1.152-1.729 2.607-1.729 4.365v29.238c-5.937-4.805-12.793-7.207-20.566-7.207-9.062 0-16.797 3.203-23.203 9.61C3.89 44.39.687 52.124.687 61.187c0 9.062 3.204 16.796 9.61 23.203C16.703 90.797 24.437 94 33.5 94zm0-12.246c-2.89 0-5.586-.547-8.086-1.64-2.5-1.094-4.668-2.57-6.504-4.425-1.836-1.855-3.29-4.033-4.365-6.533-1.074-2.5-1.611-5.156-1.611-7.969 0-2.812.537-5.468 1.61-7.968 1.075-2.5 2.53-4.678 4.366-6.533 1.836-1.856 4.004-3.33 6.504-4.424 2.5-1.094 5.195-1.64 8.086-1.64 2.852 0 5.527.546 8.027 1.64 2.5 1.093 4.678 2.578 6.534 4.453a21.139 21.139 0 014.394 6.533c1.074 2.48 1.611 5.127 1.611 7.94 0 2.812-.537 5.458-1.61 7.939a21.139 21.139 0 01-4.395 6.533c-1.856 1.875-4.034 3.36-6.534 4.453-2.5 1.094-5.175 1.64-8.027 1.64z" fill="#007BFF"/>
    <path d="M132.395 94c1.601 0 2.87-.371 3.808-1.113a5.647 5.647 0 001.934-2.813l17.754-53.261c.312-.82.468-1.602.468-2.344 0-.82-.166-1.602-.498-2.344a6.795 6.795 0 00-1.318-1.963 5.768 5.768 0 00-1.934-1.318 6.127 6.127 0 00-2.402-.469c-1.484 0-2.695.313-3.633.938-.937.625-1.562 1.445-1.875 2.46L132.395 68.57 120.5 32.887c-1.016-3.008-2.969-4.512-5.86-4.512-2.93 0-4.902 1.504-5.917 4.512L96.828 68.512 84.523 31.773c-.351-.937-1.005-1.738-1.962-2.402-.957-.664-2.14-.996-3.545-.996-.86 0-1.66.156-2.403.469a5.768 5.768 0 00-1.933 1.318 6.341 6.341 0 00-1.29 1.963 5.979 5.979 0 00-.468 2.344c0 .703.137 1.484.41 2.343l17.754 53.262c.39 1.133 1.103 2.07 2.139 2.813C94.26 93.629 95.46 94 96.828 94s2.578-.371 3.633-1.113c1.055-.742 1.758-1.68 2.11-2.813l12.07-36.21 12.07 36.21c.312 1.055.996 1.973 2.05 2.754 1.055.781 2.266 1.172 3.634 1.172z" fill="#0073AA"/>
    <path d="M186.98 94c3.204 0 6.387-.45 9.551-1.348 3.164-.898 6.016-2.197 8.555-3.896 2.539-1.7 4.6-3.74 6.182-6.123 1.582-2.383 2.373-5.078 2.373-8.086 0-4.063-1.485-7.598-4.453-10.606h.058c-1.328-1.406-3.906-2.851-7.734-4.336l-27.422-9.023c-1.016-.39-1.524-1.133-1.524-2.227 0-1.093.313-1.953.938-2.578 3.36-3.437 7.851-5.156 13.476-5.156 5.704 0 10.547 1.992 14.532 5.977.82.82 1.67 1.582 2.549 2.285.878.703 1.943 1.054 3.193 1.054 1.758 0 3.213-.576 4.365-1.728 1.152-1.152 1.729-2.607 1.729-4.365 0-1.446-.41-2.676-1.23-3.692-6.993-7.851-15.372-11.777-25.138-11.777-3.203 0-6.396.459-9.58 1.377-3.183.918-6.045 2.217-8.584 3.896-2.539 1.68-4.6 3.721-6.181 6.123-1.582 2.403-2.373 5.088-2.373 8.057 0 4.063 1.484 7.598 4.453 10.606h-.059c1.485 1.484 4.063 2.93 7.735 4.336l27.363 9.023c1.055.43 1.582 1.191 1.582 2.285 0 .938-.293 1.738-.879 2.402-3.398 3.516-7.89 5.274-13.477 5.274-5.742 0-10.605-1.992-14.59-5.977a60.046 60.046 0 00-2.46-2.197c-.899-.762-1.993-1.142-3.282-1.142-1.757 0-3.212.576-4.365 1.728-1.152 1.152-1.728 2.607-1.728 4.365 0 1.406.43 2.676 1.289 3.809C168.758 90.113 177.137 94 186.98 94z" fill="#393"/>
  </g>
</svg>
